<?xml version="1.0" encoding="UTF-8" standalone="no"?> <svg width="64" height="64" viewBox="0 0 64 64" fill="none" xmlns="http://www.w3.org/2000/svg">
<path d="M57 7H7C4.79086 7 3 8.79086 3 11V42C3 44.2091 4.79086 46 7 46H57C59.2091 46 61 44.2091 61 42V11C61 8.79086 59.2091 7 57 7Z" fill="#2D72BC"/>
<path d="M57 7H42C42 8.06087 42.4214 9.07828 43.1716 9.82843C43.9217 10.5786 44.9391 11 46 11H54C54.7956 11 55.5587 11.3161 56.1213 11.8787C56.6839 12.4413 57 13.2044 57 14V24C57 25.0609 57.4214 26.0783 58.1716 26.8284C58.9217 27.5786 59.9391 28 61 28V11C61 9.93913 60.5786 8.92172 59.8284 8.17157C59.0783 7.42143 58.0609 7 57 7Z" fill="#4891D3"/>
<path d="M45 55H20L25 46H40L45 55Z" fill="#FCBC04"/>
<path d="M40 46H25L21.11 53L40 46Z" fill="#E59730"/>
<path d="M14 55H50C51.0609 55 52.0783 55.4214 52.8284 56.1716C53.5786 56.9217 54 57.9391 54 59V61H10V59C10 57.9391 10.4214 56.9217 11.1716 56.1716C11.9217 55.4214 12.9391 55 14 55V55Z" fill="#FCBC04"/>
<path d="M3 38H61V42C61 43.0609 60.5786 44.0783 59.8284 44.8284C59.0783 45.5786 58.0609 46 57 46H7C5.93913 46 4.92172 45.5786 4.17157 44.8284C3.42143 44.0783 3 43.0609 3 42V38Z" fill="#FCBC04"/>
<path d="M11 38H61V42H15C13.9391 42 12.9217 41.5786 12.1716 40.8284C11.4214 40.0783 11 39.0609 11 38Z" fill="#F9E109"/>
<path d="M23 58H53.86C53.6389 57.1435 53.1401 56.3845 52.4416 55.8417C51.7432 55.2989 50.8846 55.0029 50 55H20C20 55.7956 20.3161 56.5587 20.8787 57.1213C21.4413 57.6839 22.2044 58 23 58Z" fill="#F9E109"/>
<path d="M42 3H10V25H42V3Z" fill="#A1D51C"/>
<path d="M15 3H42V20H27C23.8174 20 20.7652 18.7357 18.5147 16.4853C16.2643 14.2348 15 11.1826 15 8V3Z" fill="#C4F236"/>
<path d="M7 25H45C45 26.0609 44.5786 27.0783 43.8284 27.8284C43.0783 28.5786 42.0609 29 41 29H11C9.93913 29 8.92172 28.5786 8.17157 27.8284C7.42143 27.0783 7 26.0609 7 25Z" fill="#FCBC04"/>
<path d="M23 8H16V12H23V8Z" fill="#F9E109"/>
<path d="M50 12H34C32.8954 12 32 12.8954 32 14V36C32 37.1046 32.8954 38 34 38H50C51.1046 38 52 37.1046 52 36V14C52 12.8954 51.1046 12 50 12Z" fill="#4891D3"/>
<path d="M38 12H50C50.5304 12 51.0391 12.2107 51.4142 12.5858C51.7893 12.9609 52 13.4696 52 14V32H46C43.8783 32 41.8434 31.1571 40.3431 29.6569C38.8429 28.1566 38 26.1217 38 24V12Z" fill="#57B7EB"/>
<path d="M22 20H16C14.8954 20 14 20.8954 14 22V32C14 33.1046 14.8954 34 16 34H22C23.1046 34 24 33.1046 24 32V22C24 20.8954 23.1046 20 22 20Z" fill="#4891D3"/>
<path d="M14 30H24V32C24 32.5304 23.7893 33.0391 23.4142 33.4142C23.0391 33.7893 22.5304 34 22 34H16C15.4696 34 14.9609 33.7893 14.5858 33.4142C14.2107 33.0391 14 32.5304 14 32V30Z" fill="#FCBC04"/>
<path d="M16 20H22C22.5304 20 23.0391 20.2107 23.4142 20.5858C23.7893 20.9609 24 21.4696 24 22V28H22C20.4087 28 18.8826 27.3679 17.7574 26.2426C16.6321 25.1174 16 23.5913 16 22V20Z" fill="#57B7EB"/>
<path d="M17 30H24V32H19C18.4696 32 17.9609 31.7893 17.5858 31.4142C17.2107 31.0391 17 30.5304 17 30Z" fill="#F9E109"/>
<path d="M53 43C53.5523 43 54 42.5523 54 42C54 41.4477 53.5523 41 53 41C52.4477 41 52 41.4477 52 42C52 42.5523 52.4477 43 53 43Z" fill="#39519D"/>
<path d="M49 43C49.5523 43 50 42.5523 50 42C50 41.4477 49.5523 41 49 41C48.4477 41 48 41.4477 48 42C48 42.5523 48.4477 43 49 43Z" fill="#39519D"/>
<path d="M57 6H46C45.7348 6 45.4804 6.10536 45.2929 6.29289C45.1054 6.48043 45 6.73478 45 7C45 7.26522 45.1054 7.51957 45.2929 7.70711C45.4804 7.89464 45.7348 8 46 8H57C57.7956 8 58.5587 8.31607 59.1213 8.87868C59.6839 9.44129 60 10.2044 60 11V37H52.82C52.9364 36.6793 52.9973 36.3411 53 36V32C53 31.7348 52.8946 31.4804 52.7071 31.2929C52.5196 31.1054 52.2652 31 52 31C51.7348 31 51.4804 31.1054 51.2929 31.2929C51.1054 31.4804 51 31.7348 51 32V36C51 36.2652 50.8946 36.5196 50.7071 36.7071C50.5196 36.8946 50.2652 37 50 37H34C33.7348 37 33.4804 36.8946 33.2929 36.7071C33.1054 36.5196 33 36.2652 33 36V14C33 13.7348 33.1054 13.4804 33.2929 13.2929C33.4804 13.1054 33.7348 13 34 13H50C50.2652 13 50.5196 13.1054 50.7071 13.2929C50.8946 13.4804 51 13.7348 51 14V28C51 28.2652 51.1054 28.5196 51.2929 28.7071C51.4804 28.8946 51.7348 29 52 29C52.2652 29 52.5196 28.8946 52.7071 28.7071C52.8946 28.5196 53 28.2652 53 28V14C53 13.2044 52.6839 12.4413 52.1213 11.8787C51.5587 11.3161 50.7956 11 50 11H34C33.2044 11 32.4413 11.3161 31.8787 11.8787C31.3161 12.4413 31 13.2044 31 14V24H28C27.7348 24 27.4804 24.1054 27.2929 24.2929C27.1054 24.4804 27 24.7348 27 25C27 25.2652 27.1054 25.5196 27.2929 25.7071C27.4804 25.8946 27.7348 26 28 26H31V36C31.0027 36.3411 31.0636 36.6793 31.18 37H7C6.73478 37 6.48043 37.1054 6.29289 37.2929C6.10536 37.4804 6 37.7348 6 38C6 38.2652 6.10536 38.5196 6.29289 38.7071C6.48043 38.8946 6.73478 39 7 39H60V42C60 42.7956 59.6839 43.5587 59.1213 44.1213C58.5587 44.6839 57.7956 45 57 45H7C6.20435 45 5.44129 44.6839 4.87868 44.1213C4.31607 43.5587 4 42.7956 4 42V11C4 10.2044 4.31607 9.44129 4.87868 8.87868C5.44129 8.31607 6.20435 8 7 8C7.26522 8 7.51957 7.89464 7.70711 7.70711C7.89464 7.51957 8 7.26522 8 7C8 6.73478 7.89464 6.48043 7.70711 6.29289C7.51957 6.10536 7.26522 6 7 6C5.67392 6 4.40215 6.52678 3.46447 7.46447C2.52678 8.40215 2 9.67392 2 11V42C2 43.3261 2.52678 44.5979 3.46447 45.5355C4.40215 46.4732 5.67392 47 7 47H23.3L19.41 54H14C12.6739 54 11.4021 54.5268 10.4645 55.4645C9.52678 56.4021 9 57.6739 9 59V61C9 61.2652 9.10536 61.5196 9.29289 61.7071C9.48043 61.8946 9.73478 62 10 62H16C16.2652 62 16.5196 61.8946 16.7071 61.7071C16.8946 61.5196 17 61.2652 17 61C17 60.7348 16.8946 60.4804 16.7071 60.2929C16.5196 60.1054 16.2652 60 16 60H11V59C11 58.2044 11.3161 57.4413 11.8787 56.8787C12.4413 56.3161 13.2044 56 14 56H50C50.7956 56 51.5587 56.3161 52.1213 56.8787C52.6839 57.4413 53 58.2044 53 59V60H20C19.7348 60 19.4804 60.1054 19.2929 60.2929C19.1054 60.4804 19 60.7348 19 61C19 61.2652 19.1054 61.5196 19.2929 61.7071C19.4804 61.8946 19.7348 62 20 62H54C54.2652 62 54.5196 61.8946 54.7071 61.7071C54.8946 61.5196 55 61.2652 55 61V59C55 57.6739 54.4732 56.4021 53.5355 55.4645C52.5979 54.5268 51.3261 54 50 54H45.59L41.7 47H57C58.3261 47 59.5979 46.4732 60.5355 45.5355C61.4732 44.5979 62 43.3261 62 42V11C62 9.67392 61.4732 8.40215 60.5355 7.46447C59.5979 6.52678 58.3261 6 57 6ZM43.3 54H21.7L25.59 47H39.41L43.3 54Z" fill="#39519D"/>
<path d="M7 24C6.73478 24 6.48043 24.1054 6.29289 24.2929C6.10536 24.4804 6 24.7348 6 25C6 26.3261 6.52678 27.5979 7.46447 28.5355C8.40215 29.4732 9.67392 30 11 30H13V32C13 32.7956 13.3161 33.5587 13.8787 34.1213C14.4413 34.6839 15.2044 35 16 35H22C22.7956 35 23.5587 34.6839 24.1213 34.1213C24.6839 33.5587 25 32.7956 25 32V30H28C28.2652 30 28.5196 29.8946 28.7071 29.7071C28.8946 29.5196 29 29.2652 29 29C29 28.7348 28.8946 28.4804 28.7071 28.2929C28.5196 28.1054 28.2652 28 28 28H25V22C25 21.2044 24.6839 20.4413 24.1213 19.8787C23.5587 19.3161 22.7956 19 22 19H16C15.2044 19 14.4413 19.3161 13.8787 19.8787C13.3161 20.4413 13 21.2044 13 22V24H11V4H41V8C41 8.26522 41.1054 8.51957 41.2929 8.70711C41.4804 8.89464 41.7348 9 42 9C42.2652 9 42.5196 8.89464 42.7071 8.70711C42.8946 8.51957 43 8.26522 43 8V3C43 2.73478 42.8946 2.48043 42.7071 2.29289C42.5196 2.10536 42.2652 2 42 2H10C9.73478 2 9.48043 2.10536 9.29289 2.29289C9.10536 2.48043 9 2.73478 9 3V24H7ZM23 32C23 32.2652 22.8946 32.5196 22.7071 32.7071C22.5196 32.8946 22.2652 33 22 33H16C15.7348 33 15.4804 32.8946 15.2929 32.7071C15.1054 32.5196 15 32.2652 15 32V31H23V32ZM15 22C15 21.7348 15.1054 21.4804 15.2929 21.2929C15.4804 21.1054 15.7348 21 16 21H22C22.2652 21 22.5196 21.1054 22.7071 21.2929C22.8946 21.4804 23 21.7348 23 22V29H15V22ZM13 28H11C10.3793 28.0003 9.77387 27.8081 9.26702 27.4499C8.76016 27.0917 8.37688 26.5852 8.17 26H13V28Z" fill="#39519D"/>
<path d="M16 15C15.7348 15 15.4804 15.1054 15.2929 15.2929C15.1054 15.4804 15 15.7348 15 16C15 16.2652 15.1054 16.5196 15.2929 16.7071C15.4804 16.8946 15.7348 17 16 17H20C20.2652 17 20.5196 16.8946 20.7071 16.7071C20.8946 16.5196 21 16.2652 21 16C21 15.7348 20.8946 15.4804 20.7071 15.2929C20.5196 15.1054 20.2652 15 20 15H16Z" fill="#39519D"/>
<path d="M24 12V8C24 7.73478 23.8946 7.48043 23.7071 7.29289C23.5196 7.10536 23.2652 7 23 7H16C15.7348 7 15.4804 7.10536 15.2929 7.29289C15.1054 7.48043 15 7.73478 15 8V12C15 12.2652 15.1054 12.5196 15.2929 12.7071C15.4804 12.8946 15.7348 13 16 13H23C23.2652 13 23.5196 12.8946 23.7071 12.7071C23.8946 12.5196 24 12.2652 24 12ZM22 11H17V9H22V11Z" fill="#39519D"/>
<path d="M39.5 35H44.5C44.7652 35 45.0196 34.8946 45.2071 34.7071C45.3946 34.5196 45.5 34.2652 45.5 34C45.5 33.7348 45.3946 33.4804 45.2071 33.2929C45.0196 33.1054 44.7652 33 44.5 33H39.5C39.2348 33 38.9804 33.1054 38.7929 33.2929C38.6054 33.4804 38.5 33.7348 38.5 34C38.5 34.2652 38.6054 34.5196 38.7929 34.7071C38.9804 34.8946 39.2348 35 39.5 35Z" fill="#39519D"/>
<path d="M36 17C36.5523 17 37 16.5523 37 16C37 15.4477 36.5523 15 36 15C35.4477 15 35 15.4477 35 16C35 16.5523 35.4477 17 36 17Z" fill="#39519D"/>
<path d="M40 17C40.5523 17 41 16.5523 41 16C41 15.4477 40.5523 15 40 15C39.4477 15 39 15.4477 39 16C39 16.5523 39.4477 17 40 17Z" fill="#39519D"/>
<path d="M48 20H39C38.7348 20 38.4804 20.1054 38.2929 20.2929C38.1054 20.4804 38 20.7348 38 21C38 21.2652 38.1054 21.5196 38.2929 21.7071C38.4804 21.8946 38.7348 22 39 22H48C48.2652 22 48.5196 21.8946 48.7071 21.7071C48.8946 21.5196 49 21.2652 49 21C49 20.7348 48.8946 20.4804 48.7071 20.2929C48.5196 20.1054 48.2652 20 48 20Z" fill="#39519D"/>
<path d="M49 25C49 24.7348 48.8946 24.4804 48.7071 24.2929C48.5196 24.1054 48.2652 24 48 24H36C35.7348 24 35.4804 24.1054 35.2929 24.2929C35.1054 24.4804 35 24.7348 35 25C35 25.2652 35.1054 25.5196 35.2929 25.7071C35.4804 25.8946 35.7348 26 36 26H48C48.2652 26 48.5196 25.8946 48.7071 25.7071C48.8946 25.5196 49 25.2652 49 25Z" fill="#39519D"/>
<path d="M42 29C42 28.7348 41.8946 28.4804 41.7071 28.2929C41.5196 28.1054 41.2652 28 41 28H36C35.7348 28 35.4804 28.1054 35.2929 28.2929C35.1054 28.4804 35 28.7348 35 29C35 29.2652 35.1054 29.5196 35.2929 29.7071C35.4804 29.8946 35.7348 30 36 30H41C41.2652 30 41.5196 29.8946 41.7071 29.7071C41.8946 29.5196 42 29.2652 42 29Z" fill="#39519D"/>
</svg>
