<?xml version="1.0" encoding="UTF-8" standalone="no"?> <svg id="Layer_1" data-name="Layer 1" xmlns="http://www.w3.org/2000/svg" viewBox="0 0 48 48"><defs><style>.cls-1{fill:#47caf0;}.cls-2{fill:#20aee1;}.cls-3{fill:#1761b2;}.cls-4{fill:#0d3b8d;}.cls-5{fill:#00286f;}.cls-6{fill:#eff3f9;}.cls-7{fill:#cfe0f3;}.cls-8{fill:#aecee8;}.cls-9{fill:#00d18d;}.cls-10{fill:#08105e;}</style></defs><rect class="cls-1" x="4" y="11" width="40" height="26" rx="4"/><path class="cls-2" d="M7,33V15a4,4,0,0,1,4-4H8a4,4,0,0,0-4,4V33a4,4,0,0,0,4,4h3A4,4,0,0,1,7,33Z"/><path class="cls-3" d="M44,32H4v1a4,4,0,0,0,4,4H40a4,4,0,0,0,4-4Z"/><path class="cls-4" d="M7,33V32H4v1a4,4,0,0,0,4,4h3A4,4,0,0,1,7,33Z"/><path class="cls-3" d="M10.667,41H37.333A2.667,2.667,0,0,1,40,43.667v0A1.333,1.333,0,0,1,38.667,45H9.333A1.333,1.333,0,0,1,8,43.667v0A2.667,2.667,0,0,1,10.667,41Z"/><path class="cls-4" d="M11,43.667A2.667,2.667,0,0,1,13.667,41h-3A2.667,2.667,0,0,0,8,43.667,1.333,1.333,0,0,0,9.333,45h3A1.333,1.333,0,0,1,11,43.667Z"/><rect class="cls-4" x="20" y="37" width="8" height="4"/><rect class="cls-5" x="20" y="37" width="3" height="4"/><path class="cls-6" d="M10,27V5a2,2,0,0,1,2-2H36a2,2,0,0,1,2,2V27Z"/><rect class="cls-7" x="11" y="23" width="27" height="4"/><path class="cls-8" d="M12,3H36a2,2,0,0,1,2,2V9a0,0,0,0,1,0,0H10a0,0,0,0,1,0,0V5A2,2,0,0,1,12,3Z"/><rect class="cls-9" x="14" y="13" width="6" height="6" rx="1"/><path class="cls-10" d="M40,10H39V5a3,3,0,0,0-3-3H12A3,3,0,0,0,9,5v5H8a5.006,5.006,0,0,0-5,5V33a5.006,5.006,0,0,0,5,5H18v2H10.667A3.671,3.671,0,0,0,7,43.667,2.336,2.336,0,0,0,9.333,46H38.667A2.336,2.336,0,0,0,41,43.667,3.671,3.671,0,0,0,37.333,40H29V38H40a5.006,5.006,0,0,0,5-5V15A5.006,5.006,0,0,0,40,10ZM11,26V10H37V26ZM12,4H36a1,1,0,0,1,1,1V8H11V5A1,1,0,0,1,12,4ZM8,12H9V26H8a1,1,0,0,0,0,2H40a1,1,0,0,0,0-2H39V12h1a3,3,0,0,1,3,3V31H5V15A3,3,0,0,1,8,12ZM39,43.667a.333.333,0,0,1-.333.333H9.333A.333.333,0,0,1,9,43.667,1.669,1.669,0,0,1,10.667,42H37.333A1.669,1.669,0,0,1,39,43.667ZM27,40H20V38h7Zm13-4H8a3,3,0,0,1-3-3H43A3,3,0,0,1,40,36Z"/><path class="cls-10" d="M24,15H34a1,1,0,0,0,0-2H24a1,1,0,0,0,0,2Z"/><path class="cls-10" d="M34,17H24a1,1,0,0,0,0,2H34a1,1,0,0,0,0-2Z"/><path class="cls-10" d="M34,22H14a1,1,0,0,0,0,2H34a1,1,0,0,0,0-2Z"/><circle class="cls-10" cx="13" cy="6" r="1"/><circle class="cls-10" cx="16" cy="6" r="1"/><path class="cls-10" d="M27,7h7a1,1,0,0,0,0-2H27a1,1,0,0,0,0,2Z"/><path class="cls-10" d="M15,20h4a2,2,0,0,0,2-2V14a2,2,0,0,0-2-2H15a2,2,0,0,0-2,2v4A2,2,0,0,0,15,20Zm0-6h4v4H15Z"/></svg>