<?xml version="1.0" encoding="UTF-8" standalone="no"?> <svg id="Layer_1" data-name="Layer 1" xmlns="http://www.w3.org/2000/svg" xmlns:xlink="http://www.w3.org/1999/xlink" viewBox="0 0 110 110"><defs><style>.cls-1{fill:url(#linear-gradient);}</style><linearGradient id="linear-gradient" x1="55.14" y1="5.24" x2="55.14" y2="103.24" gradientUnits="userSpaceOnUse"><stop offset="0" stop-color="#dd1200"/><stop offset="1" stop-color="#fba300"/></linearGradient></defs><path class="cls-1" d="M52.47,39.67,51.2,37.19a1,1,0,0,0-1.38-.45,1.05,1.05,0,0,0-.45,1.39l1.28,2.5A7.76,7.76,0,0,0,47.38,47v.35H45l-3.09-3.09a1,1,0,0,0-1.46,0,1,1,0,0,0,0,1.45l3,3V56.2H38.85a1,1,0,0,0,0,2h4.51v.84a11.69,11.69,0,0,0,2.31,7l-4,4a1,1,0,0,0,0,1.45,1,1,0,0,0,1.45,0L47,67.6A11.45,11.45,0,0,0,50.7,70a11.68,11.68,0,0,0,4.44.88h0a11.72,11.72,0,0,0,8.11-3.27l3.89,3.9a1,1,0,0,0,.73.3,1,1,0,0,0,.72-.3,1,1,0,0,0,0-1.45l-4-4a11.69,11.69,0,0,0,2.31-7v-.84h4.51a1,1,0,0,0,0-2H66.92V48.61l3-3a1,1,0,0,0,0-1.45,1,1,0,0,0-1.46,0L65.33,47.3H62.91V47a7.73,7.73,0,0,0-3.27-6.31l1.28-2.51a1,1,0,1,0-1.83-.94l-1.27,2.48a8,8,0,0,0-2.69-.48A7.88,7.88,0,0,0,52.47,39.67Zm12.4,9.68v9.74a9.73,9.73,0,0,1-8.71,9.67V54.06a1,1,0,1,0-2,0v14.7a9.73,9.73,0,0,1-8.71-9.67V49.35Zm-4-2.4v.35H49.42V47a5.73,5.73,0,0,1,11.45,0Zm35.85-25.5a1,1,0,0,0-.87-1c-12.7-1.62-25.48-6.42-40.2-15.11a1,1,0,0,0-1,0c-14.73,8.69-27.5,13.49-40.2,15.11a1,1,0,0,0-.87,1c-.87,24.31,3.13,43.05,12.23,57.3,8.68,13.6,20.66,20.44,28.92,24.4a1.07,1.07,0,0,0,.86,0,74.28,74.28,0,0,0,20.79-14.3A61.59,61.59,0,0,0,87.79,73C94.57,59.63,97.49,42.76,96.72,21.45ZM86.05,72s-.06.1-.07.13A59.88,59.88,0,0,1,75,87.44h0a72.11,72.11,0,0,1-19.81,13.69c-19.41-9.41-41.22-27-39.61-78.77,12.55-1.74,25.18-6.51,39.61-15,14.43,8.45,27.06,13.22,39.61,15C95.4,42.93,92.54,59.21,86.05,72Zm1-43.95c-10-2.18-20.31-6.22-31.43-12.36a1,1,0,0,0-1,0c-11.12,6.13-21.4,10.18-31.43,12.36a1,1,0,0,0-.78,1c.15,18.19,3.43,32.4,10,43.44C37.64,81.13,44.69,87.65,54.65,93a1,1,0,0,0,.48.12.94.94,0,0,0,.48-.13A61.6,61.6,0,0,0,70,82.48,52.46,52.46,0,0,0,79.73,69l.09-.18c5.28-10.49,7.9-23.49,8-39.75A1,1,0,0,0,87.05,28.09ZM78,67.92,78,68.1a50.44,50.44,0,0,1-9.36,13A59.57,59.57,0,0,1,55.12,91C41,83.27,25,69.22,24.46,29.87A118.48,118.48,0,0,0,55.14,17.75,118.54,118.54,0,0,0,85.83,29.87C85.64,45.44,83.09,57.9,78,67.92Z"/></svg>