<?xml version="1.0" encoding="UTF-8" standalone="no"?> <svg id="Layer_1" data-name="Layer 1" xmlns="http://www.w3.org/2000/svg" xmlns:xlink="http://www.w3.org/1999/xlink" viewBox="0 0 110 110"><defs><style>.cls-1{fill:url(#linear-gradient);}</style><linearGradient id="linear-gradient" x1="55" y1="6" x2="55" y2="104" gradientUnits="userSpaceOnUse"><stop offset="0" stop-color="#dd1200"/><stop offset="1" stop-color="#fba300"/></linearGradient></defs><path class="cls-1" d="M44.42,90.47A4.55,4.55,0,1,0,49,95,4.56,4.56,0,0,0,44.42,90.47Zm0,7.1A2.55,2.55,0,1,1,47,95,2.56,2.56,0,0,1,44.42,97.57ZM12,9.31a8.2,8.2,0,0,0-1.7,5V95a8.36,8.36,0,0,0,8.35,8.36H67.88A8.37,8.37,0,0,0,76.23,95V14.35A8.36,8.36,0,0,0,67.88,6H18.64A8.2,8.2,0,0,0,12,9.31ZM18.64,8H67.88a6.36,6.36,0,0,1,6.35,6.35V95a6.36,6.36,0,0,1-6.35,6.36H18.64A6.36,6.36,0,0,1,12.29,95V14.35A6.34,6.34,0,0,1,18.64,8Zm-.92,80.65H68.79a1,1,0,0,0,1-1V18.75a1,1,0,0,0-1-1H17.72a1,1,0,0,0-1,1v68.9A1,1,0,0,0,17.72,88.65Zm1-68.9H67.79v66.9H18.72Zm16.42-6.17a1,1,0,0,1,1-1H50.38a1,1,0,0,1,0,2H36.14A1,1,0,0,1,35.14,13.58ZM63,26.54a1.17,1.17,0,0,0-.05-.2s0,0,0,0a.5.5,0,0,0-.08-.12.69.69,0,0,0-.3-.29.83.83,0,0,0-.16-.09.79.79,0,0,0-.22-.05l-.14,0H24.45l-.13,0a.86.86,0,0,0-.23.05.83.83,0,0,0-.16.09l-.16.11a2.55,2.55,0,0,0-.22.3v0c0,.06,0,.13-.05.2a1.08,1.08,0,0,0,0,.19,0,0,0,0,0,0,0V44.49a1.08,1.08,0,0,0,0,.19c0,.07,0,.14.05.2v0a1,1,0,0,0,.18.26l.06.05a1.14,1.14,0,0,0,.23.15l.09,0a1,1,0,0,0,.34.07H62.06a1,1,0,0,0,.34-.07l.1,0a1.07,1.07,0,0,0,.22-.15l.06-.05A.81.81,0,0,0,63,44.9v0a1.17,1.17,0,0,0,.05-.2c0-.06,0-.12,0-.19V26.73C63.05,26.66,63,26.6,63,26.54Zm-5.43,1.21L43.26,34.5,28.92,27.75Zm-32.14.57,15.46,7.29L25.45,42.9Zm3.47,15.15,14.34-6.76,14.33,6.76Zm32.14-.57L45.6,35.61l15.46-7.29ZM26.18,66H40.37a1,1,0,0,0,1-1V50.83a1,1,0,0,0-1-1H26.18a1,1,0,0,0-1,1V65A1,1,0,0,0,26.18,66Zm1-14.18H39.37V64H27.18Zm33.15-2H46.14a1,1,0,0,0-1,1V65a1,1,0,0,0,1,1H60.33a1,1,0,0,0,1-1V50.83A1,1,0,0,0,60.33,49.83ZM59.33,64H47.14V51.83H59.33ZM58,72.66a1,1,0,0,1-1,1H26.18a1,1,0,0,1,0-2H57A1,1,0,0,1,58,72.66ZM47.7,78.16a1,1,0,0,1-1,1H26.18a1,1,0,0,1,0-2H46.7A1,1,0,0,1,47.7,78.16Zm52-32a1.28,1.28,0,0,0-.07-.34.43.43,0,0,0,0-.07.61.61,0,0,0-.07-.14L91.36,34.1a.43.43,0,0,0,0-.07,1,1,0,0,0-1-.43,1,1,0,0,0-.72.45L81.42,45.6s0,.09-.08.14l0,.07a.8.8,0,0,0-.07.34V90.43s0,0,0,.06v9.14A4.37,4.37,0,0,0,85.59,104h9.75a4.37,4.37,0,0,0,4.37-4.37V90.49s0,0,0-.06V46.15Zm-9.22-9.84,6.29,8.87H84.17ZM97.7,47.18V89.49H91.47V47.18Zm-14.47,0h6.24V89.49H83.23ZM97.71,99.63A2.37,2.37,0,0,1,95.34,102H85.59a2.38,2.38,0,0,1-2.37-2.37V91.49H97.71Z"/></svg>